<svg width="14" height="14" viewBox="0 0 14 14" fill="none" xmlns="http://www.w3.org/2000/svg">
<g id="Icon/Navbar/calendar-regular">
<path id="Vector" d="M5.24913 2.3329H8.74913V1.36068C8.74913 1.03863 9.0092 0.777344 9.33246 0.777344C9.65573 0.777344 9.9158 1.03863 9.9158 1.36068V2.3329H10.888C11.746 2.3329 12.4436 3.02925 12.4436 3.88845V11.6662C12.4436 12.5242 11.746 13.2218 10.888 13.2218H3.11024C2.25104 13.2218 1.55469 12.5242 1.55469 11.6662V3.88845C1.55469 3.02925 2.25104 2.3329 3.11024 2.3329H4.08246V1.36068C4.08246 1.03863 4.34253 0.777344 4.6658 0.777344C4.98906 0.777344 5.24913 1.03863 5.24913 1.36068V2.3329ZM2.72135 11.6662C2.72135 11.8801 2.89538 12.0551 3.11024 12.0551H10.888C11.1019 12.0551 11.2769 11.8801 11.2769 11.6662V5.44401H2.72135V11.6662Z" fill="#6B778C"/>
</g>
</svg>
