<svg width="14" height="14" viewBox="0 0 14 14" fill="none" xmlns="http://www.w3.org/2000/svg">
<g id="icon/download">
<path id="basic / download" d="M11.0846 12.2513C11.0846 12.5735 10.8235 12.8346 10.5013 12.8346H3.5013C3.17914 12.8346 2.91797 12.5735 2.91797 12.2513V12.2513C2.91797 11.9291 3.17914 11.668 3.5013 11.668H10.5013C10.8235 11.668 11.0846 11.9291 11.0846 12.2513V12.2513ZM7.18079 10.3218C7.08166 10.4209 6.92094 10.4209 6.82182 10.3218L3.91284 7.41284C3.68555 7.18555 3.68555 6.81705 3.91284 6.58977V6.58977C4.1399 6.3627 4.50796 6.36245 4.73534 6.58919L6.41797 8.26714V1.7513C6.41797 1.42914 6.67914 1.16797 7.0013 1.16797V1.16797C7.32347 1.16797 7.58464 1.42914 7.58464 1.7513V8.26714L9.26727 6.58919C9.49464 6.36245 9.8627 6.3627 10.0898 6.58977V6.58977C10.3171 6.81705 10.3171 7.18555 10.0898 7.41284L7.18079 10.3218Z" fill="#6B778C"/>
</g>
</svg>
