<svg width="20" height="20" viewBox="0 0 20 20" fill="none" xmlns="http://www.w3.org/2000/svg">
<g clip-path="url(#clip0_285_2911)">
<path d="M12.8337 11.1663V10.6663V2.66634C12.8337 2.44533 12.7459 2.23337 12.5896 2.07709L12.9431 1.72353L12.5896 2.07708C12.4333 1.92081 12.2213 1.83301 12.0003 1.83301H4.00033C3.77931 1.83301 3.56735 1.92081 3.41107 2.07709C3.25479 2.23337 3.16699 2.44533 3.16699 2.66634V17.333C3.16699 17.554 3.25479 17.766 3.41107 17.9223M12.8337 11.1663L3.41107 17.9223M12.8337 11.1663H13.3337H15.3337C15.7315 11.1663 16.113 11.3244 16.3943 11.6057C16.6756 11.887 16.8337 12.2685 16.8337 12.6663V15.333C16.8337 15.6424 16.9566 15.9392 17.1754 16.158C17.3942 16.3768 17.6909 16.4997 18.0003 16.4997C18.3097 16.4997 18.6065 16.3768 18.8253 16.158C19.0441 15.9392 19.167 15.6424 19.167 15.333V8.43018C19.2824 8.39745 19.394 8.35357 19.5003 8.29933V15.333C19.5003 15.7308 19.3423 16.1124 19.061 16.3937C18.7797 16.675 18.3981 16.833 18.0003 16.833C17.6025 16.833 17.221 16.675 16.9397 16.3937C16.6584 16.1124 16.5003 15.7308 16.5003 15.333V12.6663C16.5003 12.3569 16.3774 12.0602 16.1586 11.8414C15.9398 11.6226 15.6431 11.4997 15.3337 11.4997H13.3337H12.8337V11.9997V17.333C12.8337 17.554 12.7459 17.766 12.5896 17.9223C12.4333 18.0785 12.2213 18.1663 12.0003 18.1663H4.00033C3.77931 18.1663 3.56735 18.0785 3.41107 17.9223M12.8337 11.1663L3.05752 18.2758L3.41107 17.9223M18.167 7.33301C18.092 7.27679 18.0267 7.20804 17.9741 7.12932C17.8825 6.99228 17.8337 6.83116 17.8337 6.66634V3.39967V3.38L17.8321 3.36039C17.8302 3.33589 17.8333 3.31125 17.8412 3.28799C17.8492 3.26473 17.8618 3.24335 17.8784 3.22517C17.8949 3.20698 17.915 3.19237 17.9374 3.18224C17.9585 3.17269 17.9812 3.16731 18.0044 3.16639C18.0466 3.16738 18.0869 3.18436 18.1171 3.21397C18.1475 3.24373 18.1653 3.28394 18.167 3.32634V4.83301V5.33301V5.83301V7.33301ZM19.167 5.99967C19.1984 6.0232 19.2282 6.04904 19.2562 6.07709C19.3295 6.15034 19.3877 6.23583 19.4289 6.32876C19.4316 6.33495 19.4343 6.34118 19.4369 6.34744C19.4369 6.34744 19.4369 6.34745 19.4369 6.34746C19.4784 6.4476 19.5003 6.55584 19.5003 6.66634C19.5003 6.66661 19.5003 6.66688 19.5003 6.66716C19.5003 6.72121 19.495 6.77539 19.4843 6.82892C19.4522 6.99057 19.3728 7.13905 19.2562 7.2556C19.2283 7.28359 19.1984 7.30944 19.167 7.33301V5.99967ZM12.1586 9.4913C12.3774 9.27251 12.5003 8.97576 12.5003 8.66634V4.66634C12.5003 4.35692 12.3774 4.06018 12.1586 3.84138C11.9398 3.62259 11.6431 3.49967 11.3337 3.49967H4.66699C4.35757 3.49967 4.06083 3.62259 3.84203 3.84138C3.62324 4.06018 3.50033 4.35692 3.50033 4.66634V8.66634C3.50033 8.97576 3.62324 9.27251 3.84203 9.4913C4.06083 9.71009 4.35757 9.83301 4.66699 9.83301H11.3337C11.6431 9.83301 11.9398 9.71009 12.1586 9.4913Z" fill="#64748B" stroke="#64748B"/>
</g>
<defs>
<clipPath id="clip0_285_2911">
<rect width="20" height="20" fill="white"/>
</clipPath>
</defs>
</svg>
