<svg width="20" height="20" viewBox="0 0 20 20" fill="none" xmlns="http://www.w3.org/2000/svg">
<path d="M14.7053 6.00063L14.3518 5.64467C13.7815 5.07053 13.1032 4.61494 12.3561 4.30417C11.6089 3.9934 10.8076 3.8336 9.99841 3.83399L9.99818 3.83399C6.5918 3.83399 3.83984 6.59265 3.83984 10.0007C3.83984 13.4087 6.5918 16.1673 9.99818 16.1673C12.6413 16.1673 14.8823 14.5055 15.7586 12.1673H15.0481C14.6502 13.0983 14.0016 13.9034 13.1715 14.4911C12.2437 15.148 11.135 15.5007 9.99818 15.5007L14.7053 6.00063ZM14.7053 6.00063L15.0601 5.64587L16.1648 4.54109M14.7053 6.00063L16.1648 4.54109M16.1648 4.54109V8.66732H12.0386L13.8684 6.83754L14.2203 6.48561L13.87 6.13207C12.8833 5.13622 11.5248 4.50065 9.99818 4.50065C6.9637 4.50065 4.49818 6.96618 4.49818 10.0007C4.49818 13.0351 6.96369 15.5006 9.99816 15.5007L16.1648 4.54109Z" fill="#949494" stroke="#949494"/>
</svg>
