<svg width="16" height="16" viewBox="0 0 16 16" fill="none" xmlns="http://www.w3.org/2000/svg">
<path d="M14.7044 13.2853L10.1674 8.74836C10.8491 7.71509 11.123 6.46555 10.936 5.24186C10.749 4.01817 10.1144 2.90746 9.15524 2.12495C8.19604 1.34244 6.98052 0.94384 5.7442 1.00639C4.50789 1.06893 3.33881 1.58817 2.46349 2.46349C1.58816 3.33882 1.06893 4.50791 1.00639 5.74422C0.94384 6.98053 1.34244 8.19605 2.12495 9.15524C2.90746 10.1144 4.01816 10.749 5.24185 10.936C6.46554 11.123 7.71508 10.8491 8.74836 10.1674L13.2853 14.7044C13.3782 14.7981 13.4888 14.8724 13.6105 14.9232C13.7323 14.9739 13.8629 15 13.9949 15C14.1268 15 14.2574 14.9739 14.3792 14.9232C14.501 14.8724 14.6115 14.7981 14.7044 14.7044C14.7981 14.6115 14.8724 14.501 14.9231 14.3792C14.9739 14.2574 15 14.1268 15 13.9949C15 13.863 14.9739 13.7323 14.9231 13.6106C14.8724 13.4888 14.7981 13.3783 14.7044 13.2853ZM3.00218 6.00019C3.00218 5.40724 3.178 4.82761 3.50743 4.33459C3.83685 3.84157 4.30508 3.45731 4.85289 3.2304C5.4007 3.00348 6.0035 2.94411 6.58506 3.05979C7.16662 3.17547 7.70082 3.461 8.1201 3.88028C8.53938 4.29956 8.8249 4.83375 8.94058 5.41531C9.05626 5.99686 8.99689 6.59966 8.76998 7.14748C8.54307 7.69529 8.15881 8.16352 7.66579 8.49294C7.17277 8.82237 6.59313 8.9982 6.00018 8.9982C5.20506 8.9982 4.44251 8.68234 3.88027 8.1201C3.31803 7.55787 3.00218 6.79531 3.00218 6.00019Z" fill="#A9ABB6"/>
</svg>
