<svg width="20" height="20" viewBox="0 0 20 20" fill="none" xmlns="http://www.w3.org/2000/svg">
<path d="M10.0005 13.8081L10.2587 13.9643L13.717 16.056L13.7172 16.056C13.9701 16.2091 14.2799 15.985 14.2129 15.697L13.2963 11.7639L13.2278 11.4701L13.4558 11.2726L16.5142 8.62258L16.5144 8.62243C16.7394 8.42759 16.6152 8.06348 16.327 8.04055L16.3243 8.04034L16.3243 8.04033L12.2993 7.69866L11.9989 7.67316L11.8812 7.39555L10.3062 3.67888L10.3056 3.67731C10.1938 3.41095 9.80611 3.41095 9.6943 3.67731L9.69349 3.67925L9.69348 3.67925L8.11848 7.38758L8.00072 7.66485L7.70056 7.69033L3.67556 8.032L3.67292 8.03222L3.67292 8.03221C3.38467 8.05514 3.26046 8.41926 3.48552 8.61409L3.4857 8.61424L6.54403 11.2642L6.77203 11.4618L6.70356 11.7556L5.78694 15.6887L10.0005 13.8081ZM10.0005 13.8081L9.74193 13.9638M10.0005 13.8081L9.74193 13.9638M9.74193 13.9638L6.2836 16.0472L6.2827 16.0477M9.74193 13.9638L6.2827 16.0477M6.2827 16.0477C6.02982 16.2008 5.72015 15.9767 5.78689 15.6889L6.2827 16.0477ZM13.7833 11.6505L16.8416 9.00046L13.7833 11.6505ZM10.7666 3.4838L10.7666 3.48379L10.7666 3.4838Z" fill="#64748B" stroke="#64748B"/>
</svg>
