<svg width="20" height="20" viewBox="0 0 20 20" fill="none" xmlns="http://www.w3.org/2000/svg">
<path d="M16.3757 13.8384V14.2265L16.7515 14.3228C17.0926 14.4102 17.4044 14.5862 17.6554 14.8331C17.9063 15.08 18.0875 15.3889 18.1805 15.7285C18.2735 16.068 18.2749 16.4261 18.1847 16.7664C18.0946 17.1067 17.9159 17.4171 17.667 17.666C17.4181 17.9149 17.1077 18.0936 16.7674 18.1838C16.4271 18.2739 16.069 18.2725 15.7294 18.1795C15.3899 18.0865 15.081 17.9054 14.8341 17.6544C14.5872 17.4034 14.4111 17.0916 14.3238 16.7506L14.2274 16.3747H13.8394H6.16191H5.77388L5.67756 16.7506C5.59017 17.0916 5.41409 17.4034 5.16721 17.6544L5.52365 18.005L5.16721 17.6544C4.92032 17.9054 4.61143 18.0865 4.27188 18.1795C3.93233 18.2725 3.57423 18.2739 3.23393 18.1838L3.10584 18.6671L3.23393 18.1838C2.89363 18.0936 2.58326 17.9149 2.33432 17.666C2.08539 17.4171 1.90676 17.1067 1.81657 16.7664C1.72639 16.4261 1.72786 16.068 1.82083 15.7285C1.91381 15.3889 2.09498 15.08 2.34595 14.8331C2.59692 14.5862 2.90875 14.4102 3.24977 14.3228L3.62566 14.2265V13.8384V6.16093V5.7729L3.24977 5.67658C2.90875 5.58919 2.59692 5.41311 2.34595 5.16623C2.09498 4.91935 1.91381 4.61045 1.82083 4.2709C1.72786 3.93136 1.72639 3.57325 1.81657 3.23295C1.90676 2.89265 2.08539 2.58228 2.33432 2.33335C2.58326 2.08441 2.89363 1.90578 3.23393 1.8156C3.57423 1.72541 3.93233 1.72688 4.27188 1.81986C4.61143 1.91283 4.92032 2.094 5.16721 2.34497C5.41409 2.59594 5.59017 2.90777 5.67756 3.2488L5.77388 3.62468H6.16191H13.8394H14.2274L14.3238 3.2488C14.4111 2.90777 14.5872 2.59594 14.8341 2.34497C15.081 2.094 15.3899 1.91283 15.7294 1.81986C16.069 1.72688 16.4271 1.72541 16.7674 1.8156C17.1077 1.90578 17.4181 2.08441 17.667 2.33334C17.9159 2.58228 18.0946 2.89265 18.1847 3.23295L18.6681 3.10487L18.1847 3.23295C18.2749 3.57325 18.2735 3.93135 18.1805 4.2709C18.0875 4.61045 17.9063 4.91935 17.6554 5.16623L18.006 5.52267L17.6554 5.16623C17.4044 5.41311 17.0926 5.58919 16.7515 5.67658L16.3757 5.7729V6.16093V13.8384ZM16.2507 1.99968L16.2502 1.99968C15.7863 2.00014 15.3416 2.18461 15.0136 2.51261L15.3671 2.86616L15.0136 2.51261C14.6856 2.8406 14.5011 3.28533 14.5007 3.74918V3.74968C14.5007 4.0958 14.6033 4.43414 14.7956 4.72193C14.9879 5.00971 15.2612 5.23402 15.581 5.36647C15.9007 5.49892 16.2526 5.53358 16.5921 5.46605C16.9315 5.39853 17.2434 5.23186 17.4881 4.98712C17.7328 4.74238 17.8995 4.43055 17.967 4.09109C18.0346 3.75162 17.9999 3.39975 17.8674 3.07999C17.735 2.76021 17.5107 2.4869 17.2229 2.29461L16.9451 2.71034L17.2229 2.29461C16.9351 2.10232 16.5968 1.99968 16.2507 1.99968ZM2.00066 3.74968L2.00066 3.75018C2.00112 4.21403 2.18559 4.65876 2.51359 4.98675C2.84158 5.31475 3.2863 5.49922 3.75016 5.49968H3.75066C4.09677 5.49968 4.43512 5.39704 4.7229 5.20475C5.01069 5.01246 5.23499 4.73915 5.36745 4.41938C5.4999 4.09961 5.53455 3.74774 5.46703 3.40827C5.39951 3.06881 5.23284 2.75699 4.98809 2.51224C4.74335 2.2675 4.43153 2.10083 4.09206 2.03331C3.7526 1.96578 3.40073 2.00044 3.08096 2.13289C2.76119 2.26534 2.48788 2.48965 2.29559 2.77743C2.10329 3.06522 2.00066 3.40356 2.00066 3.74968ZM5.50066 16.2502V16.2497C5.50066 15.9036 5.39802 15.5652 5.20573 15.2774C5.01344 14.9896 4.74012 14.7653 4.42035 14.6329C4.10058 14.5004 3.74872 14.4658 3.40925 14.5333C3.06978 14.6008 2.75796 14.7675 2.51322 15.0122C2.26848 15.257 2.10181 15.5688 2.03428 15.9083C1.96676 16.2477 2.00141 16.5996 2.13387 16.9194C2.26632 17.2391 2.49062 17.5125 2.77841 17.7048C3.06619 17.897 3.40454 17.9997 3.75066 17.9997H3.75116C4.21501 17.9992 4.65973 17.8147 4.98773 17.4867C5.31572 17.1588 5.50019 16.714 5.50066 16.2502ZM13.8394 16.1247H14.2259L14.3233 15.7507C14.4127 15.407 14.5923 15.0935 14.8434 14.8424C15.0945 14.5913 15.408 14.4118 15.7516 14.3223L16.1257 14.2249V13.8384V6.16093V5.77451L15.7517 5.67708C15.4081 5.58755 15.0946 5.40798 14.8435 5.15688C14.5924 4.90579 14.4128 4.59225 14.3233 4.24862L14.2258 3.87468H13.8394H6.16191H5.77554L5.67808 4.24855C5.58849 4.59218 5.40889 4.90571 5.15779 5.15681C4.90668 5.40792 4.59316 5.58752 4.24952 5.6771L3.87566 5.77457V6.16093V13.8384V14.2249L4.2496 14.3223C4.59323 14.4118 4.90676 14.5914 5.15786 14.8425C5.40896 15.0936 5.58853 15.4071 5.67806 15.7507L5.77548 16.1247H6.16191H13.8394ZM16.2507 17.9997H16.2514C16.7151 17.999 17.1596 17.8145 17.4875 17.4866C17.8154 17.1587 18 16.7141 18.0007 16.2504V16.2497C18.0007 15.9036 17.898 15.5652 17.7057 15.2774C17.5134 14.9896 17.2401 14.7653 16.9204 14.6329C16.6006 14.5004 16.2487 14.4658 15.9092 14.5333C15.5698 14.6008 15.258 14.7675 15.0132 15.0122C14.7685 15.257 14.6018 15.5688 14.5343 15.9083C14.4668 16.2477 14.5014 16.5996 14.6339 16.9194C14.7663 17.2391 14.9906 17.5125 15.2784 17.7048C15.5662 17.897 15.9045 17.9997 16.2507 17.9997Z" fill="#505F79" stroke="#505F79"/>
</svg>
