<svg width="24" height="24" viewBox="0 0 24 24" fill="none" xmlns="http://www.w3.org/2000/svg">
<path d="M12 22.0004C9.31667 19.7171 7.31267 17.5964 5.988 15.6384C4.66333 13.6804 4.00067 11.8677 4 10.2004C4 7.70039 4.80433 5.70872 6.413 4.22539C8.02167 2.74206 9.884 2.00039 12 2.00039C12.45 2.00039 12.896 2.03806 13.338 2.11339C13.78 2.18872 14.209 2.29272 14.625 2.42539L13 4.07539C12.8333 4.04206 12.6707 4.02139 12.512 4.01339C12.3533 4.00539 12.1827 4.00106 12 4.00039C10.3167 4.00039 8.896 4.57972 7.738 5.73839C6.58 6.89706 6.00067 8.38439 6 10.2004C6 11.3837 6.49167 12.7381 7.475 14.2634C8.45833 15.7887 9.96667 17.4844 12 19.3504C14.0333 17.4837 15.5417 15.7881 16.525 14.2634C17.5083 12.7387 18 11.3844 18 10.2004C18 10.0004 17.9917 9.80039 17.975 9.60039C17.9583 9.40039 17.9333 9.20872 17.9 9.02539L19.55 7.37539C19.7 7.80872 19.8127 8.25872 19.888 8.72539C19.9633 9.19206 20.0007 9.68372 20 10.2004C20 11.8671 19.3377 13.6797 18.013 15.6384C16.6883 17.5971 14.684 19.7177 12 22.0004ZM18.35 3.85039L17.2 2.70039L11 8.90039V11.0004H13.1L19.3 4.80039L18.35 3.85039ZM20 4.10039L20.7 3.40039C20.8833 3.21706 20.975 2.98372 20.975 2.70039C20.975 2.41706 20.8833 2.18372 20.7 2.00039L20 1.30039C19.8167 1.11706 19.5833 1.02539 19.3 1.02539C19.0167 1.02539 18.7833 1.11706 18.6 1.30039L17.9 2.00039L20 4.10039Z" fill="#42526E"/>
</svg>
