<svg width="28" height="27" viewBox="0 0 28 27" fill="none" xmlns="http://www.w3.org/2000/svg">
<g filter="url(#filter0_d_3963_16266)">
<rect x="24" y="3" width="20" height="20" rx="10" transform="rotate(90 24 3)" fill="white"/>
<path d="M14.6454 14.3537C14.5515 14.2598 14.4987 14.1324 14.4987 13.9997C14.4987 13.8669 14.5515 13.7395 14.6454 13.6457C14.7393 13.5518 14.8666 13.499 14.9994 13.499C15.1321 13.499 15.2595 13.5518 15.3534 13.6457L19.3534 17.6457C19.3999 17.6921 19.4367 17.7473 19.4619 17.8081C19.4871 17.8688 19.5 17.9339 19.5 17.9997C19.5 18.0654 19.4871 18.1305 19.4619 18.1912C19.4367 18.252 19.3999 18.3072 19.3534 18.3537C19.3069 18.4001 19.2517 18.437 19.191 18.4622C19.1302 18.4873 19.0651 18.5003 18.9994 18.5003C18.9336 18.5003 18.8685 18.4873 18.8078 18.4622C18.747 18.437 18.6919 18.4001 18.6454 18.3537L14.6454 14.3537ZM8.64537 8.35365C8.59888 8.30717 8.562 8.25198 8.53684 8.19124C8.51169 8.1305 8.49874 8.0654 8.49874 7.99965C8.49874 7.93391 8.51169 7.86881 8.53684 7.80807C8.562 7.74733 8.59888 7.69214 8.64537 7.64565C8.69186 7.59917 8.74705 7.56229 8.80779 7.53713C8.86852 7.51197 8.93363 7.49902 8.99937 7.49902C9.06511 7.49902 9.13021 7.51197 9.19095 7.53713C9.25169 7.56229 9.30688 7.59917 9.35337 7.64565L13.3534 11.6457C13.4473 11.7395 13.5 11.8669 13.5 11.9997C13.5 12.1324 13.4473 12.2598 13.3534 12.3537C13.2595 12.4475 13.1321 12.5003 12.9994 12.5003C12.8666 12.5003 12.7393 12.4475 12.6454 12.3537L8.64537 8.35365Z" fill="#42526E"/>
<path d="M8.5 8C8.5 7.86739 8.55268 7.74021 8.64645 7.64645C8.74021 7.55268 8.86739 7.5 9 7.5C9.13261 7.5 9.25979 7.55268 9.35355 7.64645C9.44732 7.74021 9.5 7.86739 9.5 8L9.5 12C9.5 12.1326 9.44732 12.2598 9.35355 12.3536C9.25979 12.4473 9.13261 12.5 9 12.5C8.86739 12.5 8.74021 12.4473 8.64645 12.3536C8.55268 12.2598 8.5 12.1326 8.5 12L8.5 8Z" fill="#42526E"/>
<path d="M9 8.5C8.86739 8.5 8.74021 8.44732 8.64645 8.35355C8.55268 8.25978 8.5 8.13261 8.5 8C8.5 7.86739 8.55268 7.74021 8.64645 7.64645C8.74021 7.55268 8.86739 7.5 9 7.5L13 7.5C13.1326 7.5 13.2598 7.55268 13.3536 7.64645C13.4473 7.74021 13.5 7.86739 13.5 8C13.5 8.13261 13.4473 8.25978 13.3536 8.35355C13.2598 8.44732 13.1326 8.5 13 8.5L9 8.5ZM15 18.5C14.8674 18.5 14.7402 18.4473 14.6464 18.3536C14.5527 18.2598 14.5 18.1326 14.5 18C14.5 17.8674 14.5527 17.7402 14.6464 17.6464C14.7402 17.5527 14.8674 17.5 15 17.5L19 17.5C19.1326 17.5 19.2598 17.5527 19.3536 17.6464C19.4473 17.7402 19.5 17.8674 19.5 18C19.5 18.1326 19.4473 18.2598 19.3536 18.3536C19.2598 18.4473 19.1326 18.5 19 18.5L15 18.5Z" fill="#42526E"/>
<path d="M18.5 14C18.5 13.8674 18.5527 13.7402 18.6464 13.6464C18.7402 13.5527 18.8674 13.5 19 13.5C19.1326 13.5 19.2598 13.5527 19.3536 13.6464C19.4473 13.7402 19.5 13.8674 19.5 14L19.5 18C19.5 18.1326 19.4473 18.2598 19.3536 18.3536C19.2598 18.4473 19.1326 18.5 19 18.5C18.8674 18.5 18.7402 18.4473 18.6464 18.3536C18.5527 18.2598 18.5 18.1326 18.5 18L18.5 14Z" fill="#42526E"/>
</g>
<defs>
<filter id="filter0_d_3963_16266" x="0" y="0" width="28" height="28" filterUnits="userSpaceOnUse" color-interpolation-filters="sRGB">
<feFlood flood-opacity="0" result="BackgroundImageFix"/>
<feColorMatrix in="SourceAlpha" type="matrix" values="0 0 0 0 0 0 0 0 0 0 0 0 0 0 0 0 0 0 127 0" result="hardAlpha"/>
<feOffset dy="1"/>
<feGaussianBlur stdDeviation="2"/>
<feComposite in2="hardAlpha" operator="out"/>
<feColorMatrix type="matrix" values="0 0 0 0 0 0 0 0 0 0 0 0 0 0 0 0 0 0 0.16 0"/>
<feBlend mode="normal" in2="BackgroundImageFix" result="effect1_dropShadow_3963_16266"/>
<feBlend mode="normal" in="SourceGraphic" in2="effect1_dropShadow_3963_16266" result="shape"/>
</filter>
</defs>
</svg>
