<svg width="20" height="20" viewBox="0 0 20 20" fill="none" xmlns="http://www.w3.org/2000/svg">
<path d="M10 15.4163L7.5 14.1663M7.5 14.1663L2.5 16.6663V5.83301L7.5 3.33301M7.5 14.1663V3.33301M7.5 3.33301L12.5 5.83301M12.5 5.83301L17.5 3.33301V9.99967M12.5 5.83301V11.2497M15.8342 17.4997C15.3921 17.4997 14.9682 17.3241 14.6557 17.0115C14.3431 16.699 14.1675 16.275 14.1675 15.833C14.1675 15.391 14.3431 14.9671 14.6557 14.6545C14.9682 14.3419 15.3921 14.1663 15.8342 14.1663M15.8342 17.4997C16.2762 17.4997 16.7001 17.3241 17.0127 17.0115C17.3252 16.699 17.5008 16.275 17.5008 15.833C17.5008 15.391 17.3252 14.9671 17.0127 14.6545C16.7001 14.3419 16.2762 14.1663 15.8342 14.1663M15.8342 17.4997V18.7497M15.8342 14.1663V12.9163M18.36 14.3747L17.2775 14.9997M14.3917 16.6663L13.3083 17.2913M13.3083 14.3747L14.3917 14.9997M17.2775 16.6663L18.3608 17.2913" stroke="#505F79" stroke-width="1.5" stroke-linecap="round" stroke-linejoin="round"/>
</svg>
