<svg width="24" height="24" viewBox="0 0 24 24" fill="none" xmlns="http://www.w3.org/2000/svg">
<path d="M12.0003 3C9.254 3 7 5.41953 7 8.37072C7 9.51443 7.34 10.5802 7.91333 11.4533L7.89283 11.4188L11.0937 17.3776L11.11 17.4004C11.239 17.5816 11.3667 17.7277 11.5212 17.8378C11.6757 17.9478 11.8735 18.0173 12.0678 17.9963C12.4562 17.9543 12.6818 17.6653 12.8903 17.3609L12.9033 17.342L16.4323 10.8743L16.4352 10.8689C16.5197 10.7046 16.5808 10.539 16.6332 10.3785C16.8752 9.74119 16.9998 9.05927 17 8.37072C17 5.41953 14.7467 3 12.0003 3ZM12.0003 3.89745C14.2927 3.89745 16.1667 5.91098 16.1667 8.37072C16.1668 8.94524 16.0626 9.51426 15.86 10.0457L15.8558 10.0569L15.8522 10.0685C15.8083 10.2044 15.7607 10.3277 15.7057 10.4347L12.2125 16.8364C12.0578 17.0557 11.95 17.1074 11.9847 17.1035C12.0025 17.1017 12.019 17.1168 11.9808 17.0895C11.9443 17.0636 11.8698 16.9872 11.7815 16.8658L8.605 10.9514L8.594 10.9347C8.11483 10.206 7.83333 9.32345 7.83333 8.37072C7.83333 5.91116 9.708 3.89745 12.0003 3.89745ZM12.0003 5.30645C10.4233 5.30645 9.14783 6.67525 9.14783 8.37072C9.14783 10.0662 10.4235 11.435 12.0003 11.435C13.5772 11.435 14.8522 10.066 14.8522 8.37072C14.8522 6.67525 13.5772 5.30645 12.0003 5.30645ZM12.0003 6.20391C13.1365 6.20391 14.0188 7.15252 14.0188 8.37072C14.0188 9.58892 13.1367 10.5375 12.0003 10.5375C10.864 10.5375 9.98117 9.58874 9.98117 8.37072C9.98117 7.15252 10.8642 6.20391 12.0003 6.20391Z" fill="#42526E"/>
<path d="M14.4619 16L14.2161 16.3209C14.5485 16.3633 14.8703 16.413 15.1716 16.4732L14.1976 16.7778L15.4977 17.1428L16.4668 16.8202C17.062 17.0309 17.8861 17.2885 18.1592 17.5815H16.2161L16.4092 18.1774H18.4255C18.4195 18.5133 17.8506 18.7861 17.3073 19.0072L15.9293 18.6927L14.631 19.1838L16.0177 19.5178C15.2081 19.7504 13.8488 19.8919 12.7234 19.957L12.6761 19.274H11.324L11.2765 19.957C10.1511 19.8919 8.79202 19.7506 7.98224 19.5179L9.3691 19.1838L8.07077 18.6927L6.69263 19.0072C6.15716 18.8355 5.58062 18.5131 5.57457 18.1774H7.59113L7.78419 17.5815H5.84107C6.11414 17.2885 6.93832 17.0309 7.53352 16.8202L8.5026 17.1428L9.8027 16.7778L8.82865 16.4732C9.14321 16.4119 9.45959 16.3614 9.77728 16.3218L9.53496 16.0004C6.9065 16.2888 4.72195 16.9029 4.14914 17.8729C3.23553 19.4187 6.60587 20.9737 11.8881 20.9979C11.9666 21.002 12.0441 20.999 12.1174 20.9979C17.3965 20.9724 20.7639 19.4179 19.851 17.8729C19.2778 16.9026 17.092 16.2882 14.4619 16Z" fill="#42526E"/>
</svg>
