<svg width="14" height="14" viewBox="0 0 14 14" fill="none" xmlns="http://www.w3.org/2000/svg">
<path d="M7.47969 0.959089C7.72459 0.959089 7.96961 1.05256 8.15625 1.23949L12.9418 6.02501C13.3156 6.39888 13.3156 7.00455 12.9418 7.37841L8.15625 12.1639C7.78238 12.5378 7.17671 12.5378 6.80284 12.1639C6.42897 11.7901 6.42897 11.1844 6.80284 10.8105L10.9118 6.70171L6.80224 2.59215C6.42838 2.21828 6.42838 1.61261 6.80224 1.23874C6.98918 1.05181 7.23444 0.959089 7.47969 0.959089Z" fill="#7A869A"/>
<path opacity="0.8" d="M1.73702 0.959089C1.98192 0.959089 2.22694 1.05256 2.41357 1.23949L7.19909 6.02501C7.57296 6.39888 7.57296 7.00455 7.19909 7.37841L2.41357 12.1639C2.0397 12.5378 1.43404 12.5378 1.06017 12.1639C0.686297 11.7901 0.686298 11.1844 1.06017 10.8105L5.16764 6.70171L1.05807 2.59215C0.684205 2.21828 0.684205 1.61261 1.05807 1.23874C1.2465 1.05181 1.49176 0.959089 1.73702 0.959089Z" fill="#7A869A"/>
</svg>
