<svg width="14" height="13" viewBox="0 0 14 13" fill="none" xmlns="http://www.w3.org/2000/svg">
<path d="M6.52031 12.0409C6.27541 12.0409 6.03039 11.9474 5.84375 11.7605L1.05823 6.97499C0.684365 6.60112 0.684365 5.99545 1.05823 5.62159L5.84375 0.836066C6.21762 0.462197 6.82329 0.462197 7.19716 0.836066C7.57103 1.20993 7.57103 1.8156 7.19716 2.18947L3.08819 6.29829L7.19776 10.4079C7.57162 10.7817 7.57162 11.3874 7.19776 11.7613C7.01082 11.9482 6.76556 12.0409 6.52031 12.0409Z" fill="#7A869A"/>
<path opacity="0.8" d="M12.263 12.0409C12.0181 12.0409 11.7731 11.9474 11.5864 11.7605L6.80091 6.97499C6.42704 6.60112 6.42704 5.99545 6.80091 5.62159L11.5864 0.836066C11.9603 0.462197 12.566 0.462197 12.9398 0.836066C13.3137 1.20993 13.3137 1.8156 12.9398 2.18947L8.83236 6.29829L12.9419 10.4079C13.3158 10.7817 13.3158 11.3874 12.9419 11.7613C12.7535 11.9482 12.5082 12.0409 12.263 12.0409Z" fill="#7A869A"/>
</svg>
