<svg width="20" height="20" viewBox="0 0 20 20" fill="none" xmlns="http://www.w3.org/2000/svg">
<path d="M16.836 8.62029L16.9078 8.83576L17.1173 8.92342C17.3295 9.01222 17.5107 9.16176 17.6382 9.35325C17.7657 9.54474 17.8337 9.76964 17.8337 9.99968V14.1655C17.8333 14.3691 17.7793 14.569 17.6772 14.7451L18.1096 14.996L17.6772 14.7451C17.575 14.9211 17.4282 15.0672 17.2516 15.1684L17.0003 15.3125V15.6022V17.4997C17.0003 17.5881 16.9652 17.6729 16.9027 17.7354C16.8402 17.7979 16.7554 17.833 16.667 17.833H15.8337C15.7453 17.833 15.6605 17.7979 15.598 17.7354C15.5354 17.6729 15.5003 17.5881 15.5003 17.4997V15.833V15.333H15.0003H5.00033H4.50033V15.833V17.4997C4.50033 17.5881 4.46521 17.6729 4.40269 17.7354C4.34018 17.7979 4.2554 17.833 4.16699 17.833H3.33366C3.24525 17.833 3.16047 17.7979 3.09796 17.7354C3.03544 17.6729 3.00033 17.5881 3.00033 17.4997V15.6022V15.3147L2.7519 15.1701C2.39915 14.9647 2.16699 14.5922 2.16699 14.1663V9.99968C2.16699 9.76964 2.23499 9.54474 2.36245 9.35325C2.4899 9.16176 2.67112 9.01222 2.88333 8.92342L3.09284 8.83576L3.16467 8.62029L4.30467 5.20029L4.30484 5.19977C4.43708 4.80159 4.69145 4.45521 5.03179 4.20986L4.7394 3.80426L5.03179 4.20986C5.37214 3.9645 5.78115 3.83264 6.20071 3.83301H6.20116L13.7995 3.83301L13.7999 3.83301C14.2195 3.83264 14.6285 3.9645 14.9689 4.20986C15.3092 4.45521 15.5636 4.80159 15.6958 5.19977L15.696 5.20029L16.836 8.62029ZM13.7995 3.33301H6.20116H13.7995ZM15.5112 8.83301H16.205L15.9855 8.17481L15.0641 5.41226C15.064 5.41209 15.064 5.41193 15.0639 5.41176C14.8822 4.86476 14.372 4.49968 13.7987 4.49968H6.20128C6.20124 4.49968 6.2012 4.49968 6.20116 4.49968C5.92125 4.49963 5.64842 4.58768 5.42134 4.75135C5.19425 4.91503 5.02444 5.14603 4.93597 5.4116C4.93596 5.41163 4.93595 5.41165 4.93595 5.41168L4.01514 8.17494L3.79585 8.83301H4.48949H15.5112ZM3.34593 13.3199L3.68423 12.9818L3.34593 13.3199C3.50842 13.4825 3.70134 13.6115 3.91368 13.6995C4.12602 13.7876 4.35362 13.8329 4.58349 13.833C5.04773 13.8332 5.49302 13.6489 5.82139 13.3207C6.14977 12.9926 6.33434 12.5474 6.33449 12.0832C6.33465 11.6189 6.15038 11.1736 5.82222 10.8453C5.49406 10.5169 5.0489 10.3323 4.58466 10.3322C4.35479 10.3321 4.12716 10.3773 3.91476 10.4652C3.70236 10.5531 3.50935 10.682 3.34676 10.8444C3.18416 11.0069 3.05516 11.1999 2.96712 11.4122C2.87909 11.6245 2.83374 11.8521 2.83366 12.082C2.83358 12.3119 2.87878 12.5395 2.96668 12.7519C3.05457 12.9643 3.18344 13.1573 3.34593 13.3199ZM14.747 13.6995C14.9594 13.7876 15.187 13.8329 15.4168 13.833C15.8811 13.8332 16.3264 13.6489 16.6547 13.3207C16.9831 12.9926 17.1677 12.5474 17.1678 12.0832C17.168 11.6189 16.9837 11.1736 16.6556 10.8453C16.3274 10.5169 15.8822 10.3323 15.418 10.3322C15.1881 10.3321 14.9605 10.3773 14.7481 10.4652C14.5357 10.5531 14.3427 10.682 14.1801 10.8444C14.0175 11.0069 13.8885 11.1999 13.8005 11.4122C13.7124 11.6245 13.6671 11.8521 13.667 12.082C13.6669 12.3119 13.7121 12.5395 13.8 12.7519C13.8879 12.9643 14.0168 13.1573 14.1793 13.3199C14.3418 13.4825 14.5347 13.6115 14.747 13.6995Z" fill="#A424B4" stroke="#A424B4"/>
</svg>
