<svg width="20" height="20" viewBox="0 0 20 20" fill="none" xmlns="http://www.w3.org/2000/svg">
<path d="M3.00449 11.5661V11.5087V11.5078V11.0611L3.44842 11.011C4.91503 10.8455 6.2393 11.127 7.23995 11.9272L3.00449 11.5661ZM3.00449 11.5661L3.01753 11.6221M3.00449 11.5661L3.01753 11.6221M3.01753 11.6221C3.331 12.9679 4.02641 14.1945 5.02018 15.1546C6.01395 16.1146 7.26381 16.7673 8.61958 17.0342L9.26289 17.1609M3.01753 11.6221L9.26289 17.1609M9.26289 17.1609L9.21481 16.507M9.26289 17.1609L9.21481 16.507M9.21481 16.507C9.04719 14.2272 8.28876 12.7654 7.24013 11.9274L9.21481 16.507ZM16.5522 11.011C15.4539 10.887 14.4354 11.0138 13.5728 11.4214V11.2759L12.7603 11.9267C11.7121 12.7662 10.9535 14.2268 10.7858 16.507L10.7378 17.1609L11.3811 17.0342C12.737 16.7673 13.9869 16.1144 14.9807 15.1542C15.9745 14.1939 16.6698 12.9671 16.9831 11.6212L17.1105 11.074L16.5522 11.011ZM10.0003 2.83366H10.0003C8.33063 2.83388 6.71343 3.41685 5.42767 4.48199C4.14192 5.54713 3.26825 7.02763 2.9574 8.66807L2.95734 8.66806L2.95601 8.67574L2.92018 8.88241L2.79555 9.60118L3.51088 9.45812L5.35223 9.08985C5.93925 8.97285 6.46857 8.66917 6.99499 8.31396L6.99502 8.31401L7.00096 8.30988L7.39846 8.03321L7.39847 8.03323L7.40233 8.03049C8.0109 7.5983 8.89555 7.16699 10.0003 7.16699C11.0296 7.16699 11.8672 7.54103 12.4692 7.94215L13.0005 8.31043L13.0005 8.31046L13.0053 8.31374C13.4675 8.62614 13.9307 8.89583 14.4288 9.03717L14.4388 9.03999L14.4488 9.04239L14.6296 9.08573L14.6388 9.08793L14.6481 9.08978L16.4898 9.45812L17.193 9.59876L17.0818 8.89028C16.8168 7.2025 15.9578 5.66484 14.6594 4.55438C13.3611 3.44392 11.7088 2.8337 10.0003 2.83366ZM10.0003 2.16699C14.3267 2.16699 17.8337 5.67397 17.8337 10.0003C17.8337 14.3267 14.3267 17.8337 10.0003 17.8337C5.67397 17.8337 2.16699 14.3267 2.16699 10.0003C2.16699 5.67397 5.67397 2.16699 10.0003 2.16699Z" fill="#64748B" stroke="#64748B"/>
</svg>
