<svg width="20" height="20" viewBox="0 0 20 20" fill="none" xmlns="http://www.w3.org/2000/svg">
<path d="M15.1037 7.83995L15.1036 7.8399L11.583 13.1104C11.583 13.1104 11.583 13.1105 11.5829 13.1105C11.2249 13.6475 10.6671 13.897 10.0072 13.9055L15.1037 7.83995ZM15.1037 7.83995L15.1084 7.83255M15.1037 7.83995L15.1084 7.83255M15.1084 7.83255C15.2134 7.66921 15.2888 7.46484 15.266 7.23442C15.2431 7.00301 15.1284 6.81721 14.9895 6.6784C14.8506 6.53898 14.6643 6.4236 14.4322 6.40064C14.2018 6.37785 13.9975 6.45325 13.8341 6.55825L13.8341 6.55819M15.1084 7.83255L13.8341 6.55819M13.8341 6.55819L13.8268 6.56307M13.8341 6.55819L13.8268 6.56307M13.8268 6.56307L8.55631 10.0836C8.55621 10.0837 8.55612 10.0838 8.55602 10.0838C8.55599 10.0839 8.55596 10.0839 8.55593 10.0839C8.02782 10.4362 7.76671 10.9776 7.74074 11.6253M13.8268 6.56307L10.0066 13.9055C9.36185 13.9142 8.79562 13.7104 8.35511 13.2699C7.91341 12.8282 7.71454 12.2645 7.74074 11.6253M2.78227 8.62553L2.78222 8.62565C2.37313 9.56687 2.16699 10.5787 2.16699 11.6663C2.16699 12.402 2.25889 13.0966 2.44047 13.7519L2.78227 8.62553ZM2.78227 8.62553C3.19511 7.675 3.75717 6.84577 4.46888 6.13406M2.78227 8.62553L4.46888 6.13406M17.2184 8.62565L17.2184 8.62553C16.8055 7.675 16.2435 6.84577 15.5318 6.13406C14.8207 5.42297 13.9915 4.86088 13.0403 4.44745L17.2184 8.62565ZM17.2184 8.62565C17.6275 9.56687 17.8337 10.5787 17.8337 11.6663M17.2184 8.62565L17.8337 11.6663M7.74074 11.6253C7.74074 11.6252 7.74074 11.6251 7.74075 11.625L8.24032 11.6455L7.74072 11.6255C7.74073 11.6254 7.74073 11.6253 7.74074 11.6253ZM3.64986 16.0155C3.84362 16.1175 4.04167 16.1663 4.25033 16.1663H15.7503C15.959 16.1663 16.157 16.1175 16.3508 16.0155C16.5344 15.9189 16.6742 15.7883 16.7787 15.6193C17.1319 15.0034 17.395 14.3746 17.5704 13.7324L3.64986 16.0155ZM3.64986 16.0155C3.46604 15.9188 3.32619 15.7881 3.22163 15.6188M3.64986 16.0155L3.22163 15.6188M3.22163 15.6188C2.88346 15.0324 2.62314 14.4105 2.4405 13.752L3.22163 15.6188ZM4.46888 6.13406C5.1794 5.42354 6.01144 4.86152 6.96915 4.44797L4.46888 6.13406ZM17.8337 11.6663C17.8337 12.4037 17.745 13.0916 17.5705 13.7321L17.8337 11.6663ZM6.96936 4.44788C7.91868 4.03854 8.92741 3.83301 10.0003 3.83301C11.088 3.83301 12.0996 4.03888 13.0402 4.4474L6.96936 4.44788Z" fill="#64748B" stroke="#64748B"/>
</svg>
