<svg width="20" height="20" viewBox="0 0 20 20" fill="none" xmlns="http://www.w3.org/2000/svg">
<path d="M7.49967 16.3337H7.99967V15.8337V8.33366V7.83366H7.49967H5.83301H5.33301V8.33366V15.8337V16.3337H5.83301H7.49967ZM10.833 16.3337H11.333V15.8337V10.8337V10.3337H10.833H9.16634H8.66634V10.8337V15.8337V16.3337H9.16634H10.833ZM14.1663 16.3337H14.6663V15.8337V13.3337V12.8337H14.1663H12.4997H11.9997V13.3337V15.8337V16.3337H12.4997H14.1663ZM10.333 7.50033V8.00033H10.833H11.6663H14.9997H16.1663V16.667C16.1663 16.9764 16.0434 17.2732 15.8246 17.4919C15.6058 17.7107 15.3091 17.8337 14.9997 17.8337H4.99967C4.69025 17.8337 4.39351 17.7107 4.17472 17.492C3.95592 17.2732 3.83301 16.9764 3.83301 16.667V3.33366C3.83301 3.02424 3.95592 2.72749 4.17472 2.5087C4.39351 2.28991 4.69026 2.16699 4.99967 2.16699H10.333V3.33366V7.50033ZM16.1663 7.95989L15.3532 7.14677L11.1866 2.98011L10.3734 2.16699H11.4592L16.1663 6.8741V7.95989Z" fill="#64748B" stroke="#64748B"/>
</svg>
